<?xml version="1.0" encoding="UTF-8" standalone="no"?>
<!-- Created with Inkscape (http://www.inkscape.org/) -->
<svg id="svg4528" xmlns:rdf="http://www.w3.org/1999/02/22-rdf-syntax-ns#" xmlns="http://www.w3.org/2000/svg" height="36" width="130" version="1.1" xmlns:cc="http://creativecommons.org/ns#" xmlns:dc="http://purl.org/dc/elements/1.1/" viewBox="0 0 129.99999 36">
 <metadata id="metadata4533">
  <rdf:RDF>
   <cc:Work rdf:about="">
    <dc:format>image/svg+xml</dc:format>
    <dc:type rdf:resource="http://purl.org/dc/dcmitype/StillImage"/>
    <dc:title/>
   </cc:Work>
  </rdf:RDF>
 </metadata>
 <g id="layer1" transform="translate(0 -1016.4)">
  <g id="g5162">
   <path id="rect4445" d="m20.212 1021.6c7.0861 0 12.791 5.7048 12.791 12.791 0 7.086-5.7047 12.791-12.791 12.791-7.0861 0-12.791-5.7048-12.791-12.791 0-7.086 5.7047-12.791 12.791-12.791z" fill="#1abc9c"/>
   <path id="path4451" d="m17.532 1027.5c0.6456 7.3716-0.72057 10.34-1.8586 13.326 3.2433-0.2006 6.2123-0.1692 7.8408-2.5593 1.4868-2.1822-0.35045-5.6683-2.6122-7.3327 0.47175-0.03 1.2385-0.4761 1.1219-1.562-0.11731-1.179-2.0327-1.3034-4.492-1.8723zm2.6882 4.0746c1.8257 1.6639 3.2277 3.7302 2.8558 5.2877-0.34434 1.4419-2.4997 2.3278-3.9844 2.4568 1.2259-2.7756 1.2221-4.63 1.1285-7.7445z" fill-rule="evenodd" fill="#fff"/>
   <path id="path4453" d="m21.655 1031 1.2133 0.1414-0.64391-0.7642c-0.14509 0.1873-0.20552 0.316-0.56943 0.6228z" fill-rule="evenodd" fill="#fff"/>
  </g>
  <g id="g5114" transform="translate(2.0714 .37427)" font-family="sans-serif" fill="#ffffff">
   <text id="text4520" style="word-spacing:0px;letter-spacing:0px" line-height="125%" font-size="10.483px" y="1035.0836" x="36.830982" xml:space="preserve"><tspan id="tspan4522" font-weight="bold" font-size="13.104px" y="1035.0836" x="36.830982" font-family="Roboto" fill="#ffffff">KBL Bumigora</tspan></text>
   <text id="text4524" style="word-spacing:0px;letter-spacing:0px" line-height="125%" font-size="4.1229px" y="1042.5198" x="37.501705" xml:space="preserve"><tspan id="tspan4526" y="1042.5198" x="37.501705" font-family="Roboto" fill="#ffffff">STMIK BUMIGORA MATARAM</tspan></text>
  </g>
 </g>
</svg>
